<mxfile host="65bd71144e">
    <diagram id="eSVPS5Bn3Cp5GwCzUL4X" name="ページ1">
        <mxGraphModel dx="878" dy="772" grid="1" gridSize="10" guides="1" tooltips="1" connect="1" arrows="1" fold="1" page="1" pageScale="1" pageWidth="1600" pageHeight="900" math="0" shadow="0">
            <root>
                <mxCell id="0"/>
                <mxCell id="1" parent="0"/>
                <mxCell id="51" value="" style="rounded=1;whiteSpace=wrap;html=1;fontFamily=BIZ UDPGothic;fontSource=https%3A%2F%2Ffonts.googleapis.com%2Fcss%3Ffamily%3DBIZ%2BUDPGothic;fontSize=14;labelBackgroundColor=none;fillColor=none;" parent="1" vertex="1">
                    <mxGeometry x="340" y="80" width="200" height="170" as="geometry"/>
                </mxCell>
                <mxCell id="18" style="edgeStyle=none;html=1;exitX=0.75;exitY=0;exitDx=0;exitDy=0;entryX=0.75;entryY=1;entryDx=0;entryDy=0;strokeWidth=2;fillColor=#6d8764;strokeColor=#3A5431;fontFamily=BIZ UDPGothic;fontSource=https%3A%2F%2Ffonts.googleapis.com%2Fcss%3Ffamily%3DBIZ%2BUDPGothic;fontSize=14;" parent="1" source="2" target="3" edge="1">
                    <mxGeometry relative="1" as="geometry"/>
                </mxCell>
                <mxCell id="19" style="edgeStyle=none;html=1;exitX=0.25;exitY=0;exitDx=0;exitDy=0;entryX=0.25;entryY=1;entryDx=0;entryDy=0;strokeWidth=2;fillColor=#fa6800;strokeColor=#C73500;fontFamily=BIZ UDPGothic;fontSource=https%3A%2F%2Ffonts.googleapis.com%2Fcss%3Ffamily%3DBIZ%2BUDPGothic;fontSize=14;" parent="1" source="2" target="3" edge="1">
                    <mxGeometry relative="1" as="geometry"/>
                </mxCell>
                <mxCell id="54" style="edgeStyle=none;html=1;entryX=0.5;entryY=1;entryDx=0;entryDy=0;fontFamily=BIZ UDPGothic;fontSource=https%3A%2F%2Ffonts.googleapis.com%2Fcss%3Ffamily%3DBIZ%2BUDPGothic;fontSize=14;fontColor=default;fillColor=#76608a;strokeColor=#432D57;strokeWidth=2;" parent="1" source="2" target="53" edge="1">
                    <mxGeometry relative="1" as="geometry">
                        <Array as="points">
                            <mxPoint x="310" y="762"/>
                        </Array>
                    </mxGeometry>
                </mxCell>
                <mxCell id="2" value="自宅&lt;br style=&quot;font-size: 14px;&quot;&gt;（神戸周辺）" style="rounded=1;whiteSpace=wrap;html=1;fontFamily=BIZ UDPGothic;fontSource=https%3A%2F%2Ffonts.googleapis.com%2Fcss%3Ffamily%3DBIZ%2BUDPGothic;fontSize=14;" parent="1" vertex="1">
                    <mxGeometry x="330" y="732" width="120" height="60" as="geometry"/>
                </mxCell>
                <mxCell id="17" style="edgeStyle=none;html=1;strokeWidth=2;fillColor=#647687;strokeColor=#314354;fontFamily=BIZ UDPGothic;fontSource=https%3A%2F%2Ffonts.googleapis.com%2Fcss%3Ffamily%3DBIZ%2BUDPGothic;fontSize=14;" parent="1" source="3" target="4" edge="1">
                    <mxGeometry relative="1" as="geometry"/>
                </mxCell>
                <mxCell id="3" value="最寄り駅&lt;br style=&quot;font-size: 14px;&quot;&gt;（阪神本線）" style="rounded=1;whiteSpace=wrap;html=1;fontFamily=BIZ UDPGothic;fontSource=https%3A%2F%2Ffonts.googleapis.com%2Fcss%3Ffamily%3DBIZ%2BUDPGothic;fontSize=14;" parent="1" vertex="1">
                    <mxGeometry x="330" y="542" width="120" height="60" as="geometry"/>
                </mxCell>
                <mxCell id="20" style="edgeStyle=none;html=1;exitX=0.75;exitY=1;exitDx=0;exitDy=0;entryX=0.75;entryY=0;entryDx=0;entryDy=0;strokeWidth=2;fillColor=#6d8764;strokeColor=#3A5431;fontFamily=BIZ UDPGothic;fontSource=https%3A%2F%2Ffonts.googleapis.com%2Fcss%3Ffamily%3DBIZ%2BUDPGothic;fontSize=14;" parent="1" source="4" target="5" edge="1">
                    <mxGeometry relative="1" as="geometry"/>
                </mxCell>
                <mxCell id="21" style="edgeStyle=none;html=1;exitX=0.25;exitY=1;exitDx=0;exitDy=0;entryX=0.25;entryY=0;entryDx=0;entryDy=0;strokeWidth=2;fillColor=#647687;strokeColor=#314354;fontFamily=BIZ UDPGothic;fontSource=https%3A%2F%2Ffonts.googleapis.com%2Fcss%3Ffamily%3DBIZ%2BUDPGothic;fontSize=14;" parent="1" source="4" target="5" edge="1">
                    <mxGeometry relative="1" as="geometry"/>
                </mxCell>
                <mxCell id="22" style="edgeStyle=none;html=1;entryX=0;entryY=0.5;entryDx=0;entryDy=0;strokeWidth=2;fillColor=#647687;strokeColor=#314354;fontFamily=BIZ UDPGothic;fontSource=https%3A%2F%2Ffonts.googleapis.com%2Fcss%3Ffamily%3DBIZ%2BUDPGothic;fontSize=14;" parent="1" source="4" target="60" edge="1">
                    <mxGeometry relative="1" as="geometry">
                        <Array as="points">
                            <mxPoint x="580" y="260"/>
                        </Array>
                    </mxGeometry>
                </mxCell>
                <mxCell id="23" style="edgeStyle=none;html=1;strokeWidth=2;fillColor=#647687;strokeColor=#314354;fontFamily=BIZ UDPGothic;fontSource=https%3A%2F%2Ffonts.googleapis.com%2Fcss%3Ffamily%3DBIZ%2BUDPGothic;fontSize=14;" parent="1" source="4" target="7" edge="1">
                    <mxGeometry relative="1" as="geometry"/>
                </mxCell>
                <mxCell id="32" style="edgeStyle=none;html=1;exitX=1;exitY=0.25;exitDx=0;exitDy=0;entryX=0.25;entryY=1;entryDx=0;entryDy=0;strokeWidth=2;fillColor=#647687;strokeColor=#314354;fontFamily=BIZ UDPGothic;fontSource=https%3A%2F%2Ffonts.googleapis.com%2Fcss%3Ffamily%3DBIZ%2BUDPGothic;fontSize=14;" parent="1" source="4" target="38" edge="1">
                    <mxGeometry relative="1" as="geometry"/>
                </mxCell>
                <mxCell id="4" value="大阪梅田駅・大阪駅&lt;br style=&quot;font-size: 14px;&quot;&gt;（阪神・阪急・JR）" style="rounded=1;whiteSpace=wrap;html=1;fontFamily=BIZ UDPGothic;fontSource=https%3A%2F%2Ffonts.googleapis.com%2Fcss%3Ffamily%3DBIZ%2BUDPGothic;fontSize=14;" parent="1" vertex="1">
                    <mxGeometry x="510" y="542" width="140" height="60" as="geometry"/>
                </mxCell>
                <mxCell id="24" style="edgeStyle=none;html=1;strokeWidth=2;fillColor=#647687;strokeColor=#314354;fontFamily=BIZ UDPGothic;fontSource=https%3A%2F%2Ffonts.googleapis.com%2Fcss%3Ffamily%3DBIZ%2BUDPGothic;fontSize=14;" parent="1" source="5" target="7" edge="1">
                    <mxGeometry relative="1" as="geometry"/>
                </mxCell>
                <mxCell id="5" value="淀屋橋駅&lt;br style=&quot;font-size: 14px;&quot;&gt;（京阪・地下鉄）" style="rounded=1;whiteSpace=wrap;html=1;fontFamily=BIZ UDPGothic;fontSource=https%3A%2F%2Ffonts.googleapis.com%2Fcss%3Ffamily%3DBIZ%2BUDPGothic;fontSize=14;" parent="1" vertex="1">
                    <mxGeometry x="520" y="682" width="120" height="60" as="geometry"/>
                </mxCell>
                <mxCell id="57" style="edgeStyle=none;html=1;entryX=0;entryY=1;entryDx=0;entryDy=0;strokeWidth=2;fontFamily=BIZ UDPGothic;fontSource=https%3A%2F%2Ffonts.googleapis.com%2Fcss%3Ffamily%3DBIZ%2BUDPGothic;fontSize=14;fontColor=default;fillColor=#647687;strokeColor=#314354;" parent="1" source="7" target="56" edge="1">
                    <mxGeometry relative="1" as="geometry"/>
                </mxCell>
                <mxCell id="7" value="京橋駅&lt;br style=&quot;font-size: 14px;&quot;&gt;（京阪・JR）" style="whiteSpace=wrap;html=1;rounded=1;fontFamily=BIZ UDPGothic;fontSource=https%3A%2F%2Ffonts.googleapis.com%2Fcss%3Ffamily%3DBIZ%2BUDPGothic;fontSize=14;" parent="1" vertex="1">
                    <mxGeometry x="710" y="612" width="120" height="60" as="geometry"/>
                </mxCell>
                <mxCell id="31" style="edgeStyle=none;html=1;strokeWidth=2;fillColor=#6d8764;strokeColor=#3A5431;fontFamily=BIZ UDPGothic;fontSource=https%3A%2F%2Ffonts.googleapis.com%2Fcss%3Ffamily%3DBIZ%2BUDPGothic;fontSize=14;" parent="1" source="11" target="12" edge="1">
                    <mxGeometry relative="1" as="geometry"/>
                </mxCell>
                <mxCell id="34" style="edgeStyle=none;html=1;entryX=0;entryY=0.25;entryDx=0;entryDy=0;strokeWidth=2;fillColor=#76608a;strokeColor=#432D57;exitX=0.25;exitY=0;exitDx=0;exitDy=0;fontFamily=BIZ UDPGothic;fontSource=https%3A%2F%2Ffonts.googleapis.com%2Fcss%3Ffamily%3DBIZ%2BUDPGothic;fontSize=14;" parent="1" source="11" target="14" edge="1">
                    <mxGeometry relative="1" as="geometry">
                        <Array as="points">
                            <mxPoint x="1100" y="145"/>
                        </Array>
                    </mxGeometry>
                </mxCell>
                <mxCell id="35" style="edgeStyle=none;html=1;exitX=0.75;exitY=0;exitDx=0;exitDy=0;entryX=0;entryY=0.75;entryDx=0;entryDy=0;strokeWidth=2;fillColor=#6d8764;strokeColor=#3A5431;fontFamily=BIZ UDPGothic;fontSource=https%3A%2F%2Ffonts.googleapis.com%2Fcss%3Ffamily%3DBIZ%2BUDPGothic;fontSize=14;" parent="1" source="11" target="14" edge="1">
                    <mxGeometry relative="1" as="geometry">
                        <Array as="points">
                            <mxPoint x="1160" y="175"/>
                        </Array>
                    </mxGeometry>
                </mxCell>
                <mxCell id="37" style="edgeStyle=none;html=1;entryX=0;entryY=0.5;entryDx=0;entryDy=0;strokeWidth=2;fillColor=#fa6800;strokeColor=#C73500;fontFamily=BIZ UDPGothic;fontSource=https%3A%2F%2Ffonts.googleapis.com%2Fcss%3Ffamily%3DBIZ%2BUDPGothic;fontSize=14;" parent="1" source="11" target="14" edge="1">
                    <mxGeometry relative="1" as="geometry">
                        <Array as="points">
                            <mxPoint x="1130" y="160"/>
                        </Array>
                    </mxGeometry>
                </mxCell>
                <mxCell id="11" value="京都河原町駅&lt;br style=&quot;font-size: 14px;&quot;&gt;（阪急）" style="rounded=1;whiteSpace=wrap;html=1;fontFamily=BIZ UDPGothic;fontSource=https%3A%2F%2Ffonts.googleapis.com%2Fcss%3Ffamily%3DBIZ%2BUDPGothic;fontSize=14;" parent="1" vertex="1">
                    <mxGeometry x="1070" y="230" width="120" height="60" as="geometry"/>
                </mxCell>
                <mxCell id="27" style="edgeStyle=none;html=1;strokeWidth=2;fillColor=#647687;strokeColor=#314354;fontFamily=BIZ UDPGothic;fontSource=https%3A%2F%2Ffonts.googleapis.com%2Fcss%3Ffamily%3DBIZ%2BUDPGothic;fontSize=14;" parent="1" source="12" target="13" edge="1">
                    <mxGeometry relative="1" as="geometry"/>
                </mxCell>
                <mxCell id="12" value="祇園四条駅&lt;br style=&quot;font-size: 14px;&quot;&gt;（京阪）" style="rounded=1;whiteSpace=wrap;html=1;fontFamily=BIZ UDPGothic;fontSource=https%3A%2F%2Ffonts.googleapis.com%2Fcss%3Ffamily%3DBIZ%2BUDPGothic;fontSize=14;" parent="1" vertex="1">
                    <mxGeometry x="1230" y="230" width="120" height="60" as="geometry"/>
                </mxCell>
                <mxCell id="29" style="edgeStyle=none;html=1;exitX=1;exitY=0.25;exitDx=0;exitDy=0;entryX=0.75;entryY=0;entryDx=0;entryDy=0;strokeWidth=2;fillColor=#6d8764;strokeColor=#3A5431;fontFamily=BIZ UDPGothic;fontSource=https%3A%2F%2Ffonts.googleapis.com%2Fcss%3Ffamily%3DBIZ%2BUDPGothic;fontSize=14;" parent="1" source="13" target="14" edge="1">
                    <mxGeometry relative="1" as="geometry"/>
                </mxCell>
                <mxCell id="30" style="edgeStyle=none;html=1;exitX=1;exitY=0.75;exitDx=0;exitDy=0;entryX=0.25;entryY=0;entryDx=0;entryDy=0;strokeWidth=2;fillColor=#fa6800;strokeColor=#C73500;fontFamily=BIZ UDPGothic;fontSource=https%3A%2F%2Ffonts.googleapis.com%2Fcss%3Ffamily%3DBIZ%2BUDPGothic;fontSize=14;" parent="1" source="13" target="14" edge="1">
                    <mxGeometry relative="1" as="geometry"/>
                </mxCell>
                <mxCell id="67" style="edgeStyle=none;html=1;exitX=1;exitY=0.5;exitDx=0;exitDy=0;entryX=0.5;entryY=0;entryDx=0;entryDy=0;strokeWidth=2;fontFamily=BIZ UDPGothic;fontSource=https%3A%2F%2Ffonts.googleapis.com%2Fcss%3Ffamily%3DBIZ%2BUDPGothic;fontSize=14;fontColor=default;fillColor=#76608a;strokeColor=#432D57;" parent="1" source="13" target="14" edge="1">
                    <mxGeometry relative="1" as="geometry"/>
                </mxCell>
                <mxCell id="13" value="出町柳駅&lt;br style=&quot;font-size: 14px;&quot;&gt;（京阪）" style="rounded=1;whiteSpace=wrap;html=1;fontFamily=BIZ UDPGothic;fontSource=https%3A%2F%2Ffonts.googleapis.com%2Fcss%3Ffamily%3DBIZ%2BUDPGothic;fontSize=14;" parent="1" vertex="1">
                    <mxGeometry x="1230" y="30" width="120" height="60" as="geometry"/>
                </mxCell>
                <mxCell id="14" value="大学" style="rounded=1;whiteSpace=wrap;html=1;fontFamily=BIZ UDPGothic;fontSource=https%3A%2F%2Ffonts.googleapis.com%2Fcss%3Ffamily%3DBIZ%2BUDPGothic;fontSize=14;" parent="1" vertex="1">
                    <mxGeometry x="1400" y="130" width="120" height="60" as="geometry"/>
                </mxCell>
                <mxCell id="26" style="edgeStyle=none;html=1;strokeWidth=2;fillColor=#647687;strokeColor=#314354;fontFamily=BIZ UDPGothic;fontSource=https%3A%2F%2Ffonts.googleapis.com%2Fcss%3Ffamily%3DBIZ%2BUDPGothic;fontSize=14;" parent="1" source="15" target="12" edge="1">
                    <mxGeometry relative="1" as="geometry"/>
                </mxCell>
                <mxCell id="15" value="七条駅&lt;br style=&quot;font-size: 14px;&quot;&gt;（京阪）" style="rounded=1;whiteSpace=wrap;html=1;fontFamily=BIZ UDPGothic;fontSource=https%3A%2F%2Ffonts.googleapis.com%2Fcss%3Ffamily%3DBIZ%2BUDPGothic;fontSize=14;" parent="1" vertex="1">
                    <mxGeometry x="1230" y="340" width="120" height="60" as="geometry"/>
                </mxCell>
                <mxCell id="33" style="edgeStyle=none;html=1;entryX=0;entryY=0.5;entryDx=0;entryDy=0;strokeWidth=2;fillColor=#6d8764;strokeColor=#3A5431;fontFamily=BIZ UDPGothic;fontSource=https%3A%2F%2Ffonts.googleapis.com%2Fcss%3Ffamily%3DBIZ%2BUDPGothic;fontSize=14;" parent="1" source="16" target="15" edge="1">
                    <mxGeometry relative="1" as="geometry"/>
                </mxCell>
                <mxCell id="36" style="edgeStyle=none;html=1;exitX=1;exitY=0.75;exitDx=0;exitDy=0;entryX=0.75;entryY=1;entryDx=0;entryDy=0;strokeWidth=2;fillColor=#76608a;strokeColor=#432D57;fontFamily=BIZ UDPGothic;fontSource=https%3A%2F%2Ffonts.googleapis.com%2Fcss%3Ffamily%3DBIZ%2BUDPGothic;fontSize=14;" parent="1" source="16" target="14" edge="1">
                    <mxGeometry relative="1" as="geometry">
                        <Array as="points">
                            <mxPoint x="1490" y="455"/>
                        </Array>
                    </mxGeometry>
                </mxCell>
                <mxCell id="62" style="edgeStyle=none;html=1;entryX=0.5;entryY=1;entryDx=0;entryDy=0;strokeWidth=2;fontFamily=BIZ UDPGothic;fontSource=https%3A%2F%2Ffonts.googleapis.com%2Fcss%3Ffamily%3DBIZ%2BUDPGothic;fontSize=14;fontColor=default;fillColor=#647687;strokeColor=#314354;" parent="1" source="16" target="60" edge="1">
                    <mxGeometry relative="1" as="geometry"/>
                </mxCell>
                <mxCell id="16" value="京都駅&lt;br style=&quot;font-size: 14px;&quot;&gt;（JR・近鉄・地下鉄）" style="rounded=1;whiteSpace=wrap;html=1;fontFamily=BIZ UDPGothic;fontSource=https%3A%2F%2Ffonts.googleapis.com%2Fcss%3Ffamily%3DBIZ%2BUDPGothic;fontSize=14;" parent="1" vertex="1">
                    <mxGeometry x="893" y="410" width="145" height="60" as="geometry"/>
                </mxCell>
                <mxCell id="39" style="edgeStyle=none;html=1;exitX=1;exitY=0;exitDx=0;exitDy=0;entryX=0;entryY=0.25;entryDx=0;entryDy=0;strokeWidth=2;fillColor=#647687;strokeColor=#314354;fontFamily=BIZ UDPGothic;fontSource=https%3A%2F%2Ffonts.googleapis.com%2Fcss%3Ffamily%3DBIZ%2BUDPGothic;fontSize=14;" parent="1" source="38" target="16" edge="1">
                    <mxGeometry relative="1" as="geometry"/>
                </mxCell>
                <mxCell id="40" style="edgeStyle=none;html=1;exitX=1;exitY=0.75;exitDx=0;exitDy=0;entryX=0;entryY=0.75;entryDx=0;entryDy=0;strokeWidth=2;fillColor=#e3c800;strokeColor=#B09500;fontFamily=BIZ UDPGothic;fontSource=https%3A%2F%2Ffonts.googleapis.com%2Fcss%3Ffamily%3DBIZ%2BUDPGothic;fontSize=14;" parent="1" source="38" target="16" edge="1">
                    <mxGeometry relative="1" as="geometry"/>
                </mxCell>
                <mxCell id="38" value="新大阪駅&lt;br style=&quot;font-size: 14px;&quot;&gt;（JR）" style="rounded=1;whiteSpace=wrap;html=1;fontFamily=BIZ UDPGothic;fontSource=https%3A%2F%2Ffonts.googleapis.com%2Fcss%3Ffamily%3DBIZ%2BUDPGothic;fontSize=14;" parent="1" vertex="1">
                    <mxGeometry x="640" y="440" width="120" height="60" as="geometry"/>
                </mxCell>
                <mxCell id="41" value="" style="endArrow=classic;html=1;strokeWidth=2;fillColor=#6d8764;strokeColor=#3A5431;fontFamily=BIZ UDPGothic;fontSource=https%3A%2F%2Ffonts.googleapis.com%2Fcss%3Ffamily%3DBIZ%2BUDPGothic;fontSize=14;" parent="1" edge="1">
                    <mxGeometry width="50" height="50" relative="1" as="geometry">
                        <mxPoint x="380" y="120" as="sourcePoint"/>
                        <mxPoint x="500" y="120" as="targetPoint"/>
                    </mxGeometry>
                </mxCell>
                <mxCell id="42" value="徒歩" style="edgeLabel;html=1;align=center;verticalAlign=middle;resizable=0;points=[];fontFamily=BIZ UDPGothic;fontSource=https%3A%2F%2Ffonts.googleapis.com%2Fcss%3Ffamily%3DBIZ%2BUDPGothic;fontSize=14;" parent="41" vertex="1" connectable="0">
                    <mxGeometry x="-0.2095" y="-3" relative="1" as="geometry">
                        <mxPoint x="4" y="-4" as="offset"/>
                    </mxGeometry>
                </mxCell>
                <mxCell id="43" value="" style="endArrow=classic;html=1;strokeWidth=2;fillColor=#fa6800;strokeColor=#C73500;fontFamily=BIZ UDPGothic;fontSource=https%3A%2F%2Ffonts.googleapis.com%2Fcss%3Ffamily%3DBIZ%2BUDPGothic;fontSize=14;" parent="1" edge="1">
                    <mxGeometry width="50" height="50" relative="1" as="geometry">
                        <mxPoint x="380" y="140" as="sourcePoint"/>
                        <mxPoint x="500" y="140" as="targetPoint"/>
                    </mxGeometry>
                </mxCell>
                <mxCell id="44" value="自転車" style="edgeLabel;html=1;align=center;verticalAlign=middle;resizable=0;points=[];fontFamily=BIZ UDPGothic;fontSource=https%3A%2F%2Ffonts.googleapis.com%2Fcss%3Ffamily%3DBIZ%2BUDPGothic;fontSize=14;labelBackgroundColor=default;" parent="43" vertex="1" connectable="0">
                    <mxGeometry x="-0.2095" y="-3" relative="1" as="geometry">
                        <mxPoint x="4" y="-4" as="offset"/>
                    </mxGeometry>
                </mxCell>
                <mxCell id="45" value="" style="endArrow=classic;html=1;strokeWidth=2;fillColor=#647687;strokeColor=#314354;fontFamily=BIZ UDPGothic;fontSource=https%3A%2F%2Ffonts.googleapis.com%2Fcss%3Ffamily%3DBIZ%2BUDPGothic;fontSize=14;" parent="1" edge="1">
                    <mxGeometry width="50" height="50" relative="1" as="geometry">
                        <mxPoint x="380" y="163" as="sourcePoint"/>
                        <mxPoint x="500" y="163" as="targetPoint"/>
                    </mxGeometry>
                </mxCell>
                <mxCell id="46" value="在来線・私鉄" style="edgeLabel;html=1;align=center;verticalAlign=middle;resizable=0;points=[];fontFamily=BIZ UDPGothic;fontSource=https%3A%2F%2Ffonts.googleapis.com%2Fcss%3Ffamily%3DBIZ%2BUDPGothic;fontSize=14;" parent="45" vertex="1" connectable="0">
                    <mxGeometry x="-0.2095" y="-3" relative="1" as="geometry">
                        <mxPoint x="4" y="-4" as="offset"/>
                    </mxGeometry>
                </mxCell>
                <mxCell id="47" value="" style="endArrow=classic;html=1;strokeWidth=2;fillColor=#76608a;strokeColor=#432D57;fontFamily=BIZ UDPGothic;fontSource=https%3A%2F%2Ffonts.googleapis.com%2Fcss%3Ffamily%3DBIZ%2BUDPGothic;fontSize=14;" parent="1" edge="1">
                    <mxGeometry width="50" height="50" relative="1" as="geometry">
                        <mxPoint x="380" y="187" as="sourcePoint"/>
                        <mxPoint x="500" y="187" as="targetPoint"/>
                    </mxGeometry>
                </mxCell>
                <mxCell id="48" value="バス" style="edgeLabel;html=1;align=center;verticalAlign=middle;resizable=0;points=[];fontFamily=BIZ UDPGothic;fontSource=https%3A%2F%2Ffonts.googleapis.com%2Fcss%3Ffamily%3DBIZ%2BUDPGothic;fontSize=14;" parent="47" vertex="1" connectable="0">
                    <mxGeometry x="-0.2095" y="-3" relative="1" as="geometry">
                        <mxPoint x="4" y="-4" as="offset"/>
                    </mxGeometry>
                </mxCell>
                <mxCell id="49" value="" style="endArrow=classic;html=1;strokeWidth=2;fillColor=#e3c800;strokeColor=#B09500;fontFamily=BIZ UDPGothic;fontSource=https%3A%2F%2Ffonts.googleapis.com%2Fcss%3Ffamily%3DBIZ%2BUDPGothic;fontSize=14;" parent="1" edge="1">
                    <mxGeometry width="50" height="50" relative="1" as="geometry">
                        <mxPoint x="380" y="210" as="sourcePoint"/>
                        <mxPoint x="500" y="210" as="targetPoint"/>
                    </mxGeometry>
                </mxCell>
                <mxCell id="50" value="新幹線" style="edgeLabel;html=1;align=center;verticalAlign=middle;resizable=0;points=[];fontFamily=BIZ UDPGothic;fontSource=https%3A%2F%2Ffonts.googleapis.com%2Fcss%3Ffamily%3DBIZ%2BUDPGothic;fontSize=14;" parent="49" vertex="1" connectable="0">
                    <mxGeometry x="-0.2095" y="-3" relative="1" as="geometry">
                        <mxPoint x="4" y="-4" as="offset"/>
                    </mxGeometry>
                </mxCell>
                <mxCell id="55" style="edgeStyle=none;html=1;exitX=1;exitY=0.75;exitDx=0;exitDy=0;entryX=0;entryY=0;entryDx=0;entryDy=0;fontFamily=BIZ UDPGothic;fontSource=https%3A%2F%2Ffonts.googleapis.com%2Fcss%3Ffamily%3DBIZ%2BUDPGothic;fontSize=14;fontColor=default;fillColor=#647687;strokeColor=#314354;strokeWidth=2;" parent="1" source="53" target="4" edge="1">
                    <mxGeometry relative="1" as="geometry"/>
                </mxCell>
                <mxCell id="53" value="2番目寄り駅&lt;br&gt;（JR）" style="rounded=1;whiteSpace=wrap;html=1;strokeColor=default;fontFamily=BIZ UDPGothic;fontSource=https%3A%2F%2Ffonts.googleapis.com%2Fcss%3Ffamily%3DBIZ%2BUDPGothic;fontSize=14;fontColor=default;fillColor=default;" parent="1" vertex="1">
                    <mxGeometry x="250" y="420" width="120" height="60" as="geometry"/>
                </mxCell>
                <mxCell id="58" style="edgeStyle=none;html=1;exitX=0.25;exitY=0;exitDx=0;exitDy=0;entryX=0.5;entryY=1;entryDx=0;entryDy=0;strokeWidth=2;fontFamily=BIZ UDPGothic;fontSource=https%3A%2F%2Ffonts.googleapis.com%2Fcss%3Ffamily%3DBIZ%2BUDPGothic;fontSize=14;fontColor=default;fillColor=#647687;strokeColor=#314354;" parent="1" source="56" target="16" edge="1">
                    <mxGeometry relative="1" as="geometry"/>
                </mxCell>
                <mxCell id="59" style="edgeStyle=none;html=1;exitX=1;exitY=0.5;exitDx=0;exitDy=0;entryX=0.5;entryY=1;entryDx=0;entryDy=0;strokeWidth=2;fontFamily=BIZ UDPGothic;fontSource=https%3A%2F%2Ffonts.googleapis.com%2Fcss%3Ffamily%3DBIZ%2BUDPGothic;fontSize=14;fontColor=default;fillColor=#647687;strokeColor=#314354;" parent="1" source="56" target="15" edge="1">
                    <mxGeometry relative="1" as="geometry"/>
                </mxCell>
                <mxCell id="56" value="丹波橋駅&lt;br&gt;（京阪・近鉄）" style="rounded=1;whiteSpace=wrap;html=1;strokeColor=default;fontFamily=BIZ UDPGothic;fontSource=https%3A%2F%2Ffonts.googleapis.com%2Fcss%3Ffamily%3DBIZ%2BUDPGothic;fontSize=14;fontColor=default;fillColor=default;" parent="1" vertex="1">
                    <mxGeometry x="950" y="520" width="120" height="60" as="geometry"/>
                </mxCell>
                <mxCell id="61" style="edgeStyle=none;html=1;exitX=1;exitY=0.5;exitDx=0;exitDy=0;strokeWidth=2;fontFamily=BIZ UDPGothic;fontSource=https%3A%2F%2Ffonts.googleapis.com%2Fcss%3Ffamily%3DBIZ%2BUDPGothic;fontSize=14;fontColor=default;fillColor=#647687;strokeColor=#314354;" parent="1" source="60" target="11" edge="1">
                    <mxGeometry relative="1" as="geometry">
                        <mxPoint x="1070" y="260" as="targetPoint"/>
                    </mxGeometry>
                </mxCell>
                <mxCell id="64" style="edgeStyle=none;html=1;exitX=0.5;exitY=0;exitDx=0;exitDy=0;strokeWidth=2;fontFamily=BIZ UDPGothic;fontSource=https%3A%2F%2Ffonts.googleapis.com%2Fcss%3Ffamily%3DBIZ%2BUDPGothic;fontSize=14;fontColor=default;fillColor=#647687;strokeColor=#314354;" parent="1" source="60" target="63" edge="1">
                    <mxGeometry relative="1" as="geometry"/>
                </mxCell>
                <mxCell id="60" value="烏丸駅・四条駅&lt;br&gt;（阪急・地下鉄）" style="rounded=1;whiteSpace=wrap;html=1;strokeColor=default;fontFamily=BIZ UDPGothic;fontSource=https%3A%2F%2Ffonts.googleapis.com%2Fcss%3Ffamily%3DBIZ%2BUDPGothic;fontSize=14;fontColor=default;fillColor=default;" parent="1" vertex="1">
                    <mxGeometry x="905" y="230" width="120" height="60" as="geometry"/>
                </mxCell>
                <mxCell id="65" style="edgeStyle=none;html=1;exitX=1;exitY=0.5;exitDx=0;exitDy=0;strokeWidth=2;fontFamily=BIZ UDPGothic;fontSource=https%3A%2F%2Ffonts.googleapis.com%2Fcss%3Ffamily%3DBIZ%2BUDPGothic;fontSize=14;fontColor=default;fillColor=#6d8764;strokeColor=#3A5431;" parent="1" source="63" target="13" edge="1">
                    <mxGeometry relative="1" as="geometry"/>
                </mxCell>
                <mxCell id="66" style="edgeStyle=none;html=1;exitX=1;exitY=1;exitDx=0;exitDy=0;entryX=0;entryY=0;entryDx=0;entryDy=0;strokeWidth=2;fontFamily=BIZ UDPGothic;fontSource=https%3A%2F%2Ffonts.googleapis.com%2Fcss%3Ffamily%3DBIZ%2BUDPGothic;fontSize=14;fontColor=default;fillColor=#76608a;strokeColor=#432D57;" parent="1" source="63" target="14" edge="1">
                    <mxGeometry relative="1" as="geometry"/>
                </mxCell>
                <mxCell id="63" value="今出川駅&lt;br&gt;（地下鉄）" style="rounded=1;whiteSpace=wrap;html=1;strokeColor=default;fontFamily=BIZ UDPGothic;fontSource=https%3A%2F%2Ffonts.googleapis.com%2Fcss%3Ffamily%3DBIZ%2BUDPGothic;fontSize=14;fontColor=default;fillColor=default;" parent="1" vertex="1">
                    <mxGeometry x="905" y="30" width="120" height="60" as="geometry"/>
                </mxCell>
            </root>
        </mxGraphModel>
    </diagram>
</mxfile>